<svg width="16" height="16" fill="none" xmlns="http://www.w3.org/2000/svg"><path d="M14.329 11.613a9.65 9.65 0 01-.225-.175 21.36 21.36 0 00-1.186-.868l-.245-.171c-.506-.355-.96-.528-1.39-.528-.577 0-1.082.32-1.498.95-.184.279-.408.415-.683.415a1.35 1.35 0 01-.55-.139c-1.632-.74-2.797-1.874-3.463-3.37-.322-.725-.218-1.198.349-1.583.322-.218.92-.625.878-1.403-.048-.885-1.999-3.546-2.821-3.848A1.602 1.602 0 002.405.89c-.944.318-1.622.876-1.96 1.614-.327.713-.313 1.55.042 2.42 1.026 2.518 2.467 4.713 4.286 6.524 1.78 1.773 3.967 3.226 6.5 4.317.23.098.469.152.644.191.06.014.111.025.149.035a.25.25 0 00.063.009h.02c1.192 0 2.623-1.089 3.063-2.33.385-1.088-.319-1.626-.883-2.057z" fill="#000"/></svg>