<svg width="6" height="6" viewBox="0 0 6 6" fill="none" xmlns="http://www.w3.org/2000/svg">
<path d="M5.68665 4.71405C5.70588 2.45825 3.78458 0.390274 1.40381 0.104311C1.35646 0.0986964 1.30488 0.0901497 1.25027 0.0811062C1.13241 0.0615783 1.01052 0.0415039 0.88754 0.0415039C0.39959 0.0415039 0.269155 0.384262 0.23482 0.588684C0.201429 0.787442 0.233279 0.954349 0.329329 1.08498C0.490919 1.30471 0.775242 1.34372 1.00361 1.37497C1.07055 1.38421 1.1337 1.39281 1.18657 1.40468C3.3256 1.88265 4.04585 2.6341 4.39785 4.75494C4.40645 4.80677 4.41032 4.87062 4.41445 4.93835C4.4298 5.19186 4.4618 5.71932 5.02886 5.71932H5.02891C5.07611 5.71932 5.12684 5.71524 5.17966 5.70719C5.70771 5.62694 5.69117 5.14481 5.68322 4.91316C5.68098 4.84791 5.67884 4.7862 5.68436 4.74516C5.68585 4.73482 5.6866 4.72444 5.68665 4.71405Z" fill="black"/>
</svg>
